<svg width="691" height="75" viewBox="0 0 691 75" fill="none" xmlns="http://www.w3.org/2000/svg">
<path d="M0.8 73V66.664C2.272 66.6 3.488 66.408 4.448 66.088C5.472 65.768 6.24 65.032 6.752 63.88C7.328 62.728 7.616 60.872 7.616 58.312V21.544C7.616 19.816 7.648 18.152 7.712 16.552C7.84 14.952 7.936 13.736 8 12.904C6.976 12.968 5.696 13.032 4.16 13.096C2.624 13.096 1.504 13.128 0.8 13.192V5.8H28.352V12.136C26.944 12.2 25.728 12.392 24.704 12.712C23.68 13.032 22.88 13.768 22.304 14.92C21.792 16.008 21.536 17.864 21.536 20.488V35.464H47.936V21.544C47.936 19.816 47.968 18.152 48.032 16.552C48.096 14.952 48.192 13.736 48.32 12.904C47.296 12.968 46.016 13.032 44.48 13.096C42.944 13.096 41.824 13.128 41.12 13.192V5.8H68.672V12.136C67.264 12.2 66.048 12.392 65.024 12.712C64 13.032 63.2 13.768 62.624 14.92C62.112 16.008 61.856 17.864 61.856 20.488V57.256C61.856 58.984 61.824 60.648 61.76 62.248C61.696 63.848 61.6 65.064 61.472 65.896C62.496 65.768 63.776 65.704 65.312 65.704C66.912 65.64 68.032 65.608 68.672 65.608V73H41.12V66.664C42.592 66.6 43.808 66.408 44.768 66.088C45.792 65.768 46.56 65.032 47.072 63.88C47.648 62.728 47.936 60.872 47.936 58.312V42.76L21.536 43.048V57.256C21.536 58.984 21.504 60.648 21.44 62.248C21.376 63.848 21.28 65.064 21.152 65.896C22.176 65.768 23.456 65.704 24.992 65.704C26.592 65.64 27.712 65.608 28.352 65.608V73H0.8ZM97.5943 74.536C92.9223 74.536 88.7943 73.512 85.2103 71.464C81.6263 69.352 78.8423 66.408 76.8583 62.632C74.8743 58.792 73.8823 54.28 73.8823 49.096C73.8823 44.616 74.8743 40.424 76.8583 36.52C78.8423 32.616 81.6263 29.48 85.2103 27.112C88.8583 24.68 93.0823 23.464 97.8823 23.464C100.57 23.464 103.194 23.848 105.754 24.616C108.314 25.32 110.618 26.568 112.666 28.36C114.778 30.152 116.442 32.584 117.658 35.656C118.938 38.728 119.546 42.568 119.482 47.176L87.9943 47.752C87.9943 51.208 88.4103 54.312 89.2423 57.064C90.1383 59.816 91.5783 61.992 93.5623 63.592C95.5463 65.192 98.2023 65.992 101.53 65.992C102.81 65.992 104.25 65.768 105.85 65.32C107.514 64.872 109.178 64.136 110.842 63.112C112.57 62.024 114.17 60.584 115.642 58.792L119.962 62.824C117.658 66.088 115.194 68.584 112.57 70.312C109.946 71.976 107.322 73.096 104.698 73.672C102.138 74.248 99.7703 74.536 97.5943 74.536ZM88.5703 41.032H106.234C106.17 38.344 105.786 36.232 105.082 34.696C104.442 33.096 103.546 31.944 102.394 31.24C101.242 30.536 99.8983 30.184 98.3623 30.184C95.5463 30.184 93.3383 31.208 91.7383 33.256C90.1383 35.24 89.0823 37.832 88.5703 41.032ZM153.187 73C153.059 72.104 152.963 71.368 152.899 70.792C152.899 70.152 152.867 69.416 152.803 68.584C150.627 70.76 148.323 72.296 145.891 73.192C143.459 74.088 140.995 74.536 138.499 74.536C134.403 74.536 131.203 73.32 128.898 70.888C126.595 68.456 125.443 65.416 125.443 61.768C125.443 58.696 126.211 56.072 127.747 53.896C129.347 51.72 131.427 49.96 133.987 48.616C136.611 47.208 139.491 46.152 142.627 45.448C145.827 44.68 149.027 44.232 152.227 44.104V39.112C152.227 37.448 152.003 35.944 151.555 34.6C151.171 33.256 150.467 32.2 149.443 31.432C148.483 30.664 147.107 30.312 145.315 30.376C144.099 30.44 142.915 30.696 141.763 31.144C140.611 31.592 139.619 32.232 138.787 33.064C139.299 33.64 139.619 34.28 139.747 34.984C139.875 35.624 139.939 36.2 139.939 36.712C139.939 37.992 139.427 39.336 138.403 40.744C137.379 42.088 135.747 42.728 133.507 42.664C131.587 42.6 130.115 41.928 129.091 40.648C128.067 39.368 127.555 37.864 127.555 36.136C127.555 33.576 128.451 31.368 130.243 29.512C132.099 27.592 134.563 26.12 137.635 25.096C140.707 24.008 144.099 23.464 147.811 23.464C153.443 23.464 157.795 24.936 160.867 27.88C164.003 30.76 165.571 35.4 165.571 41.8C165.571 43.976 165.571 45.832 165.571 47.368C165.571 48.904 165.539 50.44 165.475 51.976C165.475 53.512 165.475 55.368 165.475 57.544C165.475 58.44 165.443 59.72 165.379 61.384C165.315 62.984 165.219 64.52 165.091 65.992C166.179 65.864 167.331 65.8 168.547 65.8C169.763 65.736 170.691 65.704 171.331 65.704V73H153.187ZM152.131 50.92C150.339 51.112 148.643 51.432 147.043 51.88C145.443 52.328 144.035 52.936 142.819 53.704C141.667 54.472 140.739 55.4 140.035 56.488C139.395 57.576 139.075 58.792 139.075 60.136C139.139 61.928 139.715 63.208 140.803 63.976C141.891 64.744 143.139 65.128 144.547 65.128C146.019 65.128 147.395 64.808 148.675 64.168C149.955 63.528 151.107 62.696 152.131 61.672C152.131 61.032 152.131 60.424 152.131 59.848C152.131 59.208 152.131 58.568 152.131 57.928C152.131 56.776 152.131 55.624 152.131 54.472C152.131 53.256 152.131 52.072 152.131 50.92ZM195.475 74.536C193.555 74.536 191.699 74.312 189.907 73.864C188.179 73.416 186.579 72.584 185.107 71.368C183.699 70.088 182.579 68.232 181.747 65.8C180.915 63.368 180.499 60.136 180.499 56.104L180.691 32.968H174.163V25C176.147 24.936 178.067 24.264 179.923 22.984C181.779 21.704 183.347 20.04 184.627 17.992C185.971 15.944 186.867 13.8 187.315 11.56H194.419L194.323 25H206.515V32.392L194.323 32.68L194.227 56.296C194.227 57.768 194.355 59.24 194.611 60.712C194.931 62.12 195.507 63.304 196.339 64.264C197.171 65.16 198.387 65.608 199.987 65.608C200.883 65.608 202.099 65.288 203.635 64.648C205.235 64.008 206.931 62.408 208.723 59.848L213.331 64.168C211.603 66.728 209.811 68.712 207.955 70.12C206.099 71.528 204.307 72.552 202.579 73.192C200.915 73.832 199.443 74.216 198.163 74.344C196.883 74.472 195.987 74.536 195.475 74.536ZM244.732 66.76C246.524 66.76 247.804 66.408 248.572 65.704C249.404 65 249.916 64.008 250.108 62.728C250.364 61.384 250.492 59.88 250.492 58.216L250.396 44.584C250.396 40.424 249.756 37.352 248.476 35.368C247.26 33.32 245.308 32.296 242.62 32.296C241.02 32.296 239.42 32.648 237.82 33.352C236.284 34.056 234.972 34.888 233.884 35.848V57.544C233.884 58.44 233.852 59.72 233.788 61.384C233.724 62.984 233.628 64.52 233.5 65.992C234.588 65.864 235.74 65.8 236.956 65.8C238.172 65.736 239.1 65.704 239.74 65.704V73H214.588V66.76C216.38 66.76 217.66 66.408 218.428 65.704C219.26 65 219.772 64.008 219.964 62.728C220.156 61.384 220.252 59.88 220.252 58.216V18.76C220.252 17.608 220.284 16.296 220.348 14.824C220.412 13.288 220.508 11.816 220.636 10.408C219.612 10.472 218.396 10.536 216.988 10.6C215.644 10.6 214.62 10.632 213.916 10.696V3.4C216.924 3.4 219.42 3.24 221.404 2.92C223.452 2.6 225.052 2.216 226.204 1.768C227.42 1.32 228.252 0.903997 228.7 0.519995H233.884V28.84C235.164 27.816 236.636 26.92 238.3 26.152C239.964 25.32 241.66 24.68 243.388 24.232C245.116 23.72 246.62 23.464 247.9 23.464C253.788 23.464 257.948 25.16 260.38 28.552C262.812 31.88 264.06 37.256 264.124 44.68V57.544C264.124 58.44 264.092 59.72 264.028 61.384C263.964 62.984 263.868 64.52 263.74 65.992C264.764 65.864 265.884 65.8 267.1 65.8C268.316 65.736 269.276 65.704 269.98 65.704V73H244.732V66.76ZM298.501 74.536C293.829 74.536 289.701 73.512 286.117 71.464C282.533 69.352 279.749 66.408 277.765 62.632C275.781 58.792 274.789 54.28 274.789 49.096C274.789 44.616 275.781 40.424 277.765 36.52C279.749 32.616 282.533 29.48 286.117 27.112C289.765 24.68 293.989 23.464 298.789 23.464C301.477 23.464 304.101 23.848 306.661 24.616C309.221 25.32 311.525 26.568 313.573 28.36C315.685 30.152 317.349 32.584 318.565 35.656C319.845 38.728 320.453 42.568 320.389 47.176L288.901 47.752C288.901 51.208 289.317 54.312 290.149 57.064C291.045 59.816 292.485 61.992 294.469 63.592C296.453 65.192 299.109 65.992 302.437 65.992C303.717 65.992 305.157 65.768 306.757 65.32C308.421 64.872 310.085 64.136 311.749 63.112C313.477 62.024 315.077 60.584 316.549 58.792L320.869 62.824C318.565 66.088 316.101 68.584 313.477 70.312C310.853 71.976 308.229 73.096 305.605 73.672C303.045 74.248 300.677 74.536 298.501 74.536ZM289.477 41.032H307.141C307.077 38.344 306.693 36.232 305.989 34.696C305.349 33.096 304.453 31.944 303.301 31.24C302.149 30.536 300.805 30.184 299.269 30.184C296.453 30.184 294.245 31.208 292.645 33.256C291.045 35.24 289.989 37.832 289.477 41.032ZM327.405 66.76C329.197 66.76 330.477 66.408 331.245 65.704C332.013 65 332.493 64.008 332.685 62.728C332.941 61.384 333.069 59.88 333.069 58.216V42.088C333.069 40.936 333.101 39.656 333.165 38.248C333.229 36.776 333.325 35.336 333.453 33.928C332.429 33.992 331.213 34.056 329.805 34.12C328.461 34.12 327.437 34.152 326.733 34.216V26.92H330.573C333.069 26.92 335.341 26.6 337.389 25.96C339.501 25.32 340.877 24.68 341.517 24.04H346.221C346.349 24.68 346.445 25.896 346.509 27.688C346.573 29.416 346.605 30.952 346.605 32.296C348.333 30.184 349.965 28.488 351.501 27.208C353.037 25.928 354.541 25 356.013 24.424C357.549 23.784 359.085 23.464 360.621 23.464C362.861 23.464 364.813 24.104 366.477 25.384C368.141 26.6 368.973 28.616 368.973 31.432C368.973 32.392 368.749 33.416 368.301 34.504C367.853 35.528 367.149 36.392 366.189 37.096C365.229 37.8 363.917 38.152 362.253 38.152C360.973 38.152 359.661 37.768 358.317 37C356.973 36.232 356.205 34.76 356.013 32.584C354.733 32.584 353.453 33.128 352.173 34.216C350.893 35.24 349.741 36.488 348.717 37.96C347.757 39.368 347.085 40.68 346.701 41.896V57.544C346.701 58.44 346.669 59.72 346.605 61.384C346.541 62.984 346.445 64.52 346.317 65.992C347.341 65.864 348.461 65.8 349.677 65.8C350.957 65.736 351.917 65.704 352.557 65.704V73H327.405V66.76ZM399.613 73V66.664C401.085 66.6 402.301 66.408 403.261 66.088C404.285 65.768 405.053 65.032 405.565 63.88C406.141 62.728 406.429 60.872 406.429 58.312V21.544C406.429 19.816 406.461 18.152 406.525 16.552C406.653 14.952 406.749 13.736 406.812 12.904C405.789 12.968 404.509 13.032 402.973 13.096C401.437 13.096 400.317 13.128 399.613 13.192V5.8H447.613L448.189 24.424H441.853C441.853 20.904 441.245 18.248 440.029 16.456C438.813 14.664 437.309 13.48 435.517 12.904C433.725 12.264 431.965 11.976 430.237 12.04L426.781 12.136C425.437 12.136 424.285 12.328 423.325 12.712C422.365 13.032 421.629 13.8 421.117 15.016C420.605 16.168 420.349 17.992 420.349 20.488V37.192H430.237L429.853 28.936H437.245V52.264H430.909C430.909 49.576 430.493 47.624 429.661 46.408C428.829 45.192 427.677 44.456 426.205 44.2C424.797 43.88 423.229 43.752 421.501 43.816H420.349V57.256C420.349 58.984 420.317 60.648 420.253 62.248C420.189 63.848 420.093 65.064 419.965 65.896C420.669 65.832 421.597 65.8 422.749 65.8C423.901 65.736 425.021 65.704 426.109 65.704C427.261 65.64 428.061 65.608 428.509 65.608V73H399.613ZM472.621 74.536C468.781 74.536 465.677 73.8 463.309 72.328C461.005 70.856 459.309 68.552 458.221 65.416C457.197 62.28 456.685 58.248 456.685 53.32V42.28C456.685 41.128 456.717 39.816 456.781 38.344C456.845 36.808 456.909 35.336 456.973 33.928C455.949 33.992 454.733 34.056 453.325 34.12C451.981 34.12 450.957 34.152 450.253 34.216V26.92H451.213C455.181 26.92 458.317 26.6 460.621 25.96C462.925 25.32 464.397 24.68 465.037 24.04H470.317V53.416C470.317 57.576 470.861 60.68 471.949 62.728C473.037 64.712 474.765 65.704 477.133 65.704C478.797 65.704 480.461 65.256 482.125 64.36C483.853 63.4 485.261 62.312 486.349 61.096V42.28C486.349 41.128 486.381 39.816 486.445 38.344C486.509 36.808 486.605 35.336 486.733 33.928C485.709 33.992 484.493 34.056 483.085 34.12C481.741 34.12 480.717 34.152 480.013 34.216V26.92H482.317C485.325 26.92 487.981 26.6 490.285 25.96C492.589 25.256 494.061 24.616 494.701 24.04H499.981V57.544C499.981 58.44 499.949 59.72 499.885 61.384C499.821 62.984 499.725 64.52 499.597 65.992C500.621 65.864 501.741 65.8 502.957 65.8C504.237 65.736 505.197 65.704 505.837 65.704V73H487.597C487.533 72.168 487.437 71.336 487.309 70.504C487.245 69.672 487.149 68.84 487.021 68.008C485.037 69.672 482.893 71.176 480.589 72.52C478.349 73.864 475.693 74.536 472.621 74.536ZM510.556 66.76C512.348 66.76 513.628 66.408 514.396 65.704C515.228 65 515.74 64.008 515.932 62.728C516.124 61.384 516.22 59.88 516.22 58.216V18.76C516.22 17.608 516.252 16.296 516.316 14.824C516.38 13.288 516.476 11.816 516.604 10.408C515.58 10.472 514.364 10.536 512.956 10.6C511.612 10.6 510.588 10.632 509.884 10.696V3.4C512.892 3.4 515.388 3.24 517.372 2.92C519.42 2.6 521.02 2.216 522.172 1.768C523.388 1.32 524.22 0.903997 524.668 0.519995H529.852V57.544C529.852 58.44 529.82 59.72 529.756 61.384C529.692 62.984 529.596 64.52 529.468 65.992C530.556 65.864 531.708 65.8 532.924 65.8C534.14 65.736 535.068 65.704 535.708 65.704V73H510.556V66.76ZM560.632 74.536C558.712 74.536 556.856 74.312 555.064 73.864C553.336 73.416 551.736 72.584 550.264 71.368C548.856 70.088 547.736 68.232 546.904 65.8C546.072 63.368 545.656 60.136 545.656 56.104L545.848 32.968H539.32V25C541.304 24.936 543.224 24.264 545.08 22.984C546.936 21.704 548.504 20.04 549.784 17.992C551.128 15.944 552.024 13.8 552.472 11.56H559.576L559.48 25H571.672V32.392L559.48 32.68L559.384 56.296C559.384 57.768 559.512 59.24 559.768 60.712C560.088 62.12 560.664 63.304 561.496 64.264C562.328 65.16 563.544 65.608 565.144 65.608C566.04 65.608 567.256 65.288 568.792 64.648C570.392 64.008 572.088 62.408 573.88 59.848L578.488 64.168C576.76 66.728 574.968 68.712 573.112 70.12C571.256 71.528 569.464 72.552 567.736 73.192C566.072 73.832 564.6 74.216 563.32 74.344C562.04 74.472 561.144 74.536 560.632 74.536ZM604.8 74.536C600.192 74.536 596.032 73.544 592.32 71.56C588.608 69.576 585.664 66.76 583.488 63.112C581.376 59.4 580.32 55.048 580.32 50.056C580.32 44.744 581.408 40.104 583.584 36.136C585.824 32.104 588.768 29 592.416 26.824C596.128 24.584 600.16 23.464 604.512 23.464C609.12 23.464 613.248 24.456 616.896 26.44C620.544 28.424 623.424 31.272 625.536 34.984C627.648 38.632 628.704 43.016 628.704 48.136C628.704 53.512 627.68 58.184 625.632 62.152C623.584 66.12 620.768 69.192 617.184 71.368C613.6 73.48 609.472 74.536 604.8 74.536ZM605.184 67.72C607.744 67.656 609.664 66.76 610.944 65.032C612.288 63.304 613.216 61.128 613.728 58.504C614.24 55.88 614.496 53.224 614.496 50.536C614.496 48.168 614.304 45.768 613.92 43.336C613.6 40.904 613.056 38.696 612.288 36.712C611.52 34.728 610.464 33.128 609.12 31.912C607.84 30.696 606.24 30.12 604.32 30.184C601.824 30.248 599.84 31.144 598.368 32.872C596.96 34.6 595.936 36.776 595.296 39.4C594.72 41.96 594.432 44.648 594.432 47.464C594.432 50.728 594.784 53.928 595.488 57.064C596.192 60.2 597.312 62.792 598.848 64.84C600.448 66.824 602.56 67.784 605.184 67.72ZM635.655 73V66.76C637.447 66.76 638.727 66.408 639.495 65.704C640.263 65 640.743 64.008 640.935 62.728C641.191 61.384 641.319 59.88 641.319 58.216V42.088C641.319 40.936 641.351 39.656 641.415 38.248C641.479 36.776 641.575 35.336 641.703 33.928C640.679 33.992 639.463 34.056 638.055 34.12C636.711 34.12 635.687 34.152 634.983 34.216V26.92C637.927 26.92 640.423 26.76 642.471 26.44C644.519 26.12 646.119 25.736 647.271 25.288C648.487 24.84 649.319 24.424 649.767 24.04H654.471C654.599 24.872 654.663 25.48 654.663 25.864C654.663 26.248 654.663 26.632 654.663 27.016C654.727 27.336 654.855 27.944 655.047 28.84C656.327 27.816 657.799 26.92 659.463 26.152C661.127 25.32 662.791 24.68 664.455 24.232C666.119 23.72 667.591 23.464 668.871 23.464C674.759 23.464 678.919 25.16 681.351 28.552C683.847 31.88 685.095 37.256 685.095 44.68V57.544C685.095 58.44 685.063 59.72 684.999 61.384C684.935 62.984 684.839 64.52 684.711 65.992C685.799 65.864 686.951 65.8 688.167 65.8C689.383 65.736 690.311 65.704 690.951 65.704V73H665.799V66.76C667.591 66.76 668.871 66.408 669.639 65.704C670.471 65 670.983 64.008 671.175 62.728C671.431 61.384 671.559 59.88 671.559 58.216L671.463 44.584C671.463 40.424 670.855 37.352 669.639 35.368C668.487 33.32 666.503 32.296 663.687 32.296C662.087 32.296 660.487 32.648 658.887 33.352C657.351 34.056 656.039 34.888 654.951 35.848C654.951 36.744 654.951 37.672 654.951 38.632C654.951 39.528 654.951 40.424 654.951 41.32V57.544C654.951 58.44 654.919 59.72 654.855 61.384C654.791 62.984 654.695 64.52 654.567 65.992C655.591 65.864 656.711 65.8 657.927 65.8C659.207 65.736 660.167 65.704 660.807 65.704V73H635.655Z" fill="black"/>
</svg>
