<svg width="1259" height="136" viewBox="0 0 1259 136" fill="none" xmlns="http://www.w3.org/2000/svg">
<path d="M0.75 133V121.45C3.43333 121.333 5.65 120.983 7.4 120.4C9.26667 119.817 10.6667 118.475 11.6 116.375C12.65 114.275 13.175 110.892 13.175 106.225V39.2C13.175 36.05 13.2333 33.0167 13.35 30.1C13.5833 27.1833 13.7583 24.9667 13.875 23.45C12.0083 23.5667 9.675 23.6833 6.875 23.8C4.075 23.8 2.03333 23.8583 0.75 23.975V10.5H50.975V22.05C48.4083 22.1667 46.1917 22.5167 44.325 23.1C42.4583 23.6833 41 25.025 39.95 27.125C39.0167 29.1083 38.55 32.4917 38.55 37.275V64.575H86.675V39.2C86.675 36.05 86.7333 33.0167 86.85 30.1C86.9667 27.1833 87.1417 24.9667 87.375 23.45C85.5083 23.5667 83.175 23.6833 80.375 23.8C77.575 23.8 75.5333 23.8583 74.25 23.975V10.5H124.475V22.05C121.908 22.1667 119.692 22.5167 117.825 23.1C115.958 23.6833 114.5 25.025 113.45 27.125C112.517 29.1083 112.05 32.4917 112.05 37.275V104.3C112.05 107.45 111.992 110.483 111.875 113.4C111.758 116.317 111.583 118.533 111.35 120.05C113.217 119.817 115.55 119.7 118.35 119.7C121.267 119.583 123.308 119.525 124.475 119.525V133H74.25V121.45C76.9333 121.333 79.15 120.983 80.9 120.4C82.7667 119.817 84.1667 118.475 85.1 116.375C86.15 114.275 86.675 110.892 86.675 106.225V77.875L38.55 78.4V104.3C38.55 107.45 38.4917 110.483 38.375 113.4C38.2583 116.317 38.0833 118.533 37.85 120.05C39.7167 119.817 42.05 119.7 44.85 119.7C47.7667 119.583 49.8083 119.525 50.975 119.525V133H0.75ZM177.198 135.8C168.681 135.8 161.156 133.933 154.623 130.2C148.09 126.35 143.015 120.983 139.398 114.1C135.781 107.1 133.973 98.875 133.973 89.425C133.973 81.2583 135.781 73.6167 139.398 66.5C143.015 59.3833 148.09 53.6667 154.623 49.35C161.273 44.9167 168.973 42.7 177.723 42.7C182.623 42.7 187.406 43.4 192.073 44.8C196.74 46.0833 200.94 48.3583 204.673 51.625C208.523 54.8917 211.556 59.325 213.773 64.925C216.106 70.525 217.215 77.525 217.098 85.925L159.698 86.975C159.698 93.275 160.456 98.9333 161.973 103.95C163.606 108.967 166.231 112.933 169.848 115.85C173.465 118.767 178.306 120.225 184.373 120.225C186.706 120.225 189.331 119.817 192.248 119C195.281 118.183 198.315 116.842 201.348 114.975C204.498 112.992 207.415 110.367 210.098 107.1L217.973 114.45C213.773 120.4 209.281 124.95 204.498 128.1C199.715 131.133 194.931 133.175 190.148 134.225C185.481 135.275 181.165 135.8 177.198 135.8ZM160.748 74.725H192.948C192.831 69.825 192.131 65.975 190.848 63.175C189.681 60.2583 188.048 58.1583 185.948 56.875C183.848 55.5917 181.398 54.95 178.598 54.95C173.465 54.95 169.44 56.8167 166.523 60.55C163.606 64.1667 161.681 68.8917 160.748 74.725ZM278.538 133C278.305 131.367 278.13 130.025 278.013 128.975C278.013 127.808 277.955 126.467 277.838 124.95C273.871 128.917 269.671 131.717 265.238 133.35C260.805 134.983 256.313 135.8 251.763 135.8C244.296 135.8 238.463 133.583 234.263 129.15C230.063 124.717 227.963 119.175 227.963 112.525C227.963 106.925 229.363 102.142 232.163 98.175C235.08 94.2083 238.871 91 243.538 88.55C248.321 85.9833 253.571 84.0583 259.288 82.775C265.121 81.375 270.955 80.5583 276.788 80.325V71.225C276.788 68.1917 276.38 65.45 275.563 63C274.863 60.55 273.58 58.625 271.713 57.225C269.963 55.825 267.455 55.1833 264.188 55.3C261.971 55.4167 259.813 55.8833 257.713 56.7C255.613 57.5167 253.805 58.6833 252.288 60.2C253.221 61.25 253.805 62.4167 254.038 63.7C254.271 64.8667 254.388 65.9167 254.388 66.85C254.388 69.1833 253.455 71.6333 251.588 74.2C249.721 76.65 246.746 77.8167 242.663 77.7C239.163 77.5833 236.48 76.3583 234.613 74.025C232.746 71.6917 231.813 68.95 231.813 65.8C231.813 61.1333 233.446 57.1083 236.713 53.725C240.096 50.225 244.588 47.5417 250.188 45.675C255.788 43.6917 261.971 42.7 268.738 42.7C279.005 42.7 286.938 45.3833 292.538 50.75C298.255 56 301.113 64.4583 301.113 76.125C301.113 80.0917 301.113 83.475 301.113 86.275C301.113 89.075 301.055 91.875 300.938 94.675C300.938 97.475 300.938 100.858 300.938 104.825C300.938 106.458 300.88 108.792 300.763 111.825C300.646 114.742 300.471 117.542 300.238 120.225C302.221 119.992 304.321 119.875 306.538 119.875C308.755 119.758 310.446 119.7 311.613 119.7V133H278.538ZM276.613 92.75C273.346 93.1 270.255 93.6833 267.338 94.5C264.421 95.3167 261.855 96.425 259.638 97.825C257.538 99.225 255.846 100.917 254.563 102.9C253.396 104.883 252.813 107.1 252.813 109.55C252.93 112.817 253.98 115.15 255.963 116.55C257.946 117.95 260.221 118.65 262.788 118.65C265.471 118.65 267.98 118.067 270.313 116.9C272.646 115.733 274.746 114.217 276.613 112.35C276.613 111.183 276.613 110.075 276.613 109.025C276.613 107.858 276.613 106.692 276.613 105.525C276.613 103.425 276.613 101.325 276.613 99.225C276.613 97.0083 276.613 94.85 276.613 92.75ZM355.627 135.8C352.127 135.8 348.743 135.392 345.477 134.575C342.327 133.758 339.41 132.242 336.727 130.025C334.16 127.692 332.118 124.308 330.602 119.875C329.085 115.442 328.327 109.55 328.327 102.2L328.677 60.025H316.777V45.5C320.393 45.3833 323.893 44.1583 327.277 41.825C330.66 39.4917 333.518 36.4583 335.852 32.725C338.302 28.9917 339.935 25.0833 340.752 21H353.702L353.527 45.5H375.752V58.975L353.527 59.5L353.352 102.55C353.352 105.233 353.585 107.917 354.052 110.6C354.635 113.167 355.685 115.325 357.202 117.075C358.718 118.708 360.935 119.525 363.852 119.525C365.485 119.525 367.702 118.942 370.502 117.775C373.418 116.608 376.51 113.692 379.777 109.025L388.177 116.9C385.027 121.567 381.76 125.183 378.377 127.75C374.993 130.317 371.727 132.183 368.577 133.35C365.543 134.517 362.86 135.217 360.527 135.45C358.193 135.683 356.56 135.8 355.627 135.8ZM445.417 121.625C448.683 121.625 451.017 120.983 452.417 119.7C453.933 118.417 454.867 116.608 455.217 114.275C455.683 111.825 455.917 109.083 455.917 106.05L455.742 81.2C455.742 73.6167 454.575 68.0167 452.242 64.4C450.025 60.6667 446.467 58.8 441.567 58.8C438.65 58.8 435.733 59.4417 432.817 60.725C430.017 62.0083 427.625 63.525 425.642 65.275V104.825C425.642 106.458 425.583 108.792 425.467 111.825C425.35 114.742 425.175 117.542 424.942 120.225C426.925 119.992 429.025 119.875 431.242 119.875C433.458 119.758 435.15 119.7 436.317 119.7V133H390.467V121.625C393.733 121.625 396.067 120.983 397.467 119.7C398.983 118.417 399.917 116.608 400.267 114.275C400.617 111.825 400.792 109.083 400.792 106.05V34.125C400.792 32.025 400.85 29.6333 400.967 26.95C401.083 24.15 401.258 21.4667 401.492 18.9C399.625 19.0167 397.408 19.1333 394.842 19.25C392.392 19.25 390.525 19.3083 389.242 19.425V6.125C394.725 6.125 399.275 5.83333 402.892 5.25C406.625 4.66666 409.542 3.96666 411.642 3.14999C413.858 2.33333 415.375 1.575 416.192 0.87499H425.642V52.5C427.975 50.6333 430.658 49 433.692 47.6C436.725 46.0833 439.817 44.9167 442.967 44.1C446.117 43.1667 448.858 42.7 451.192 42.7C461.925 42.7 469.508 45.7917 473.942 51.975C478.375 58.0417 480.65 67.8417 480.767 81.375V104.825C480.767 106.458 480.708 108.792 480.592 111.825C480.475 114.742 480.3 117.542 480.067 120.225C481.933 119.992 483.975 119.875 486.192 119.875C488.408 119.758 490.158 119.7 491.442 119.7V133H445.417V121.625ZM543.433 135.8C534.917 135.8 527.392 133.933 520.858 130.2C514.325 126.35 509.25 120.983 505.633 114.1C502.017 107.1 500.208 98.875 500.208 89.425C500.208 81.2583 502.017 73.6167 505.633 66.5C509.25 59.3833 514.325 53.6667 520.858 49.35C527.508 44.9167 535.208 42.7 543.958 42.7C548.858 42.7 553.642 43.4 558.308 44.8C562.975 46.0833 567.175 48.3583 570.908 51.625C574.758 54.8917 577.792 59.325 580.008 64.925C582.342 70.525 583.45 77.525 583.333 85.925L525.933 86.975C525.933 93.275 526.692 98.9333 528.208 103.95C529.842 108.967 532.467 112.933 536.083 115.85C539.7 118.767 544.542 120.225 550.608 120.225C552.942 120.225 555.567 119.817 558.483 119C561.517 118.183 564.55 116.842 567.583 114.975C570.733 112.992 573.65 110.367 576.333 107.1L584.208 114.45C580.008 120.4 575.517 124.95 570.733 128.1C565.95 131.133 561.167 133.175 556.383 134.225C551.717 135.275 547.4 135.8 543.433 135.8ZM526.983 74.725H559.183C559.067 69.825 558.367 65.975 557.083 63.175C555.917 60.2583 554.283 58.1583 552.183 56.875C550.083 55.5917 547.633 54.95 544.833 54.95C539.7 54.95 535.675 56.8167 532.758 60.55C529.842 64.1667 527.917 68.8917 526.983 74.725ZM596.123 121.625C599.39 121.625 601.723 120.983 603.123 119.7C604.523 118.417 605.398 116.608 605.748 114.275C606.215 111.825 606.448 109.083 606.448 106.05V76.65C606.448 74.55 606.507 72.2167 606.623 69.65C606.74 66.9667 606.915 64.3417 607.148 61.775C605.282 61.8917 603.065 62.0083 600.498 62.125C598.048 62.125 596.182 62.1833 594.898 62.3V49H601.898C606.448 49 610.59 48.4167 614.323 47.25C618.173 46.0833 620.682 44.9167 621.848 43.75H630.423C630.657 44.9167 630.832 47.1333 630.948 50.4C631.065 53.55 631.123 56.35 631.123 58.8C634.273 54.95 637.248 51.8583 640.048 49.525C642.848 47.1917 645.59 45.5 648.273 44.45C651.073 43.2833 653.873 42.7 656.673 42.7C660.757 42.7 664.315 43.8667 667.348 46.2C670.382 48.4167 671.898 52.0917 671.898 57.225C671.898 58.975 671.49 60.8417 670.673 62.825C669.857 64.6917 668.573 66.2667 666.823 67.55C665.073 68.8333 662.682 69.475 659.648 69.475C657.315 69.475 654.923 68.775 652.473 67.375C650.023 65.975 648.623 63.2917 648.273 59.325C645.94 59.325 643.607 60.3167 641.273 62.3C638.94 64.1667 636.84 66.4417 634.973 69.125C633.223 71.6917 631.998 74.0833 631.298 76.3V104.825C631.298 106.458 631.24 108.792 631.123 111.825C631.007 114.742 630.832 117.542 630.598 120.225C632.465 119.992 634.507 119.875 636.723 119.875C639.057 119.758 640.807 119.7 641.973 119.7V133H596.123V121.625ZM727.752 133V121.45C730.435 121.333 732.652 120.983 734.402 120.4C736.269 119.817 737.669 118.475 738.602 116.375C739.652 114.275 740.177 110.892 740.177 106.225V39.2C740.177 36.05 740.235 33.0167 740.352 30.1C740.585 27.1833 740.76 24.9667 740.877 23.45C739.01 23.5667 736.677 23.6833 733.877 23.8C731.077 23.8 729.035 23.8583 727.752 23.975V10.5H815.252L816.302 44.45H804.752C804.752 38.0333 803.644 33.1917 801.427 29.925C799.21 26.6583 796.469 24.5 793.202 23.45C789.935 22.2833 786.727 21.7583 783.577 21.875L777.277 22.05C774.827 22.05 772.727 22.4 770.977 23.1C769.227 23.6833 767.885 25.0833 766.952 27.3C766.019 29.4 765.552 32.725 765.552 37.275V67.725H783.577L782.877 52.675H796.352V95.2H784.802C784.802 90.3 784.044 86.7417 782.527 84.525C781.01 82.3083 778.91 80.9667 776.227 80.5C773.66 79.9167 770.802 79.6833 767.652 79.8H765.552V104.3C765.552 107.45 765.494 110.483 765.377 113.4C765.26 116.317 765.085 118.533 764.852 120.05C766.135 119.933 767.827 119.875 769.927 119.875C772.027 119.758 774.069 119.7 776.052 119.7C778.152 119.583 779.61 119.525 780.427 119.525V133H727.752ZM860.839 135.8C853.839 135.8 848.181 134.458 843.864 131.775C839.664 129.092 836.573 124.892 834.589 119.175C832.723 113.458 831.789 106.108 831.789 97.125V77C831.789 74.9 831.848 72.5083 831.964 69.825C832.081 67.025 832.198 64.3417 832.314 61.775C830.448 61.8917 828.231 62.0083 825.664 62.125C823.214 62.125 821.348 62.1833 820.064 62.3V49H821.814C829.048 49 834.764 48.4167 838.964 47.25C843.164 46.0833 845.848 44.9167 847.014 43.75H856.639V97.3C856.639 104.883 857.631 110.542 859.614 114.275C861.598 117.892 864.748 119.7 869.064 119.7C872.098 119.7 875.131 118.883 878.164 117.25C881.314 115.5 883.881 113.517 885.864 111.3V77C885.864 74.9 885.923 72.5083 886.039 69.825C886.156 67.025 886.331 64.3417 886.564 61.775C884.698 61.8917 882.481 62.0083 879.914 62.125C877.464 62.125 875.598 62.1833 874.314 62.3V49H878.514C883.998 49 888.839 48.4167 893.039 47.25C897.239 45.9667 899.923 44.8 901.089 43.75H910.714V104.825C910.714 106.458 910.656 108.792 910.539 111.825C910.423 114.742 910.248 117.542 910.014 120.225C911.881 119.992 913.923 119.875 916.139 119.875C918.473 119.758 920.223 119.7 921.389 119.7V133H888.139C888.023 131.483 887.848 129.967 887.614 128.45C887.498 126.933 887.323 125.417 887.089 123.9C883.473 126.933 879.564 129.675 875.364 132.125C871.281 134.575 866.439 135.8 860.839 135.8ZM929.993 121.625C933.26 121.625 935.593 120.983 936.993 119.7C938.51 118.417 939.443 116.608 939.793 114.275C940.143 111.825 940.318 109.083 940.318 106.05V34.125C940.318 32.025 940.376 29.6333 940.493 26.95C940.61 24.15 940.785 21.4667 941.018 18.9C939.151 19.0167 936.935 19.1333 934.368 19.25C931.918 19.25 930.051 19.3083 928.768 19.425V6.125C934.251 6.125 938.801 5.83333 942.418 5.25C946.151 4.66666 949.068 3.96666 951.168 3.14999C953.385 2.33333 954.901 1.575 955.718 0.87499H965.168V104.825C965.168 106.458 965.11 108.792 964.993 111.825C964.876 114.742 964.701 117.542 964.468 120.225C966.451 119.992 968.551 119.875 970.768 119.875C972.985 119.758 974.676 119.7 975.843 119.7V133H929.993V121.625ZM1021.28 135.8C1017.78 135.8 1014.39 135.392 1011.13 134.575C1007.98 133.758 1005.06 132.242 1002.38 130.025C999.81 127.692 997.768 124.308 996.251 119.875C994.735 115.442 993.976 109.55 993.976 102.2L994.326 60.025H982.426V45.5C986.043 45.3833 989.543 44.1583 992.926 41.825C996.31 39.4917 999.168 36.4583 1001.5 32.725C1003.95 28.9917 1005.58 25.0833 1006.4 21H1019.35L1019.18 45.5H1041.4V58.975L1019.18 59.5L1019 102.55C1019 105.233 1019.23 107.917 1019.7 110.6C1020.28 113.167 1021.33 115.325 1022.85 117.075C1024.37 118.708 1026.58 119.525 1029.5 119.525C1031.13 119.525 1033.35 118.942 1036.15 117.775C1039.07 116.608 1042.16 113.692 1045.43 109.025L1053.83 116.9C1050.68 121.567 1047.41 125.183 1044.03 127.75C1040.64 130.317 1037.38 132.183 1034.23 133.35C1031.19 134.517 1028.51 135.217 1026.18 135.45C1023.84 135.683 1022.21 135.8 1021.28 135.8ZM1101.79 135.8C1093.39 135.8 1085.81 133.992 1079.04 130.375C1072.27 126.758 1066.91 121.625 1062.94 114.975C1059.09 108.208 1057.17 100.275 1057.17 91.175C1057.17 81.4917 1059.15 73.0333 1063.12 65.8C1067.2 58.45 1072.57 52.7917 1079.22 48.825C1085.98 44.7417 1093.33 42.7 1101.27 42.7C1109.67 42.7 1117.19 44.5083 1123.84 48.125C1130.49 51.7417 1135.74 56.9333 1139.59 63.7C1143.44 70.35 1145.37 78.3417 1145.37 87.675C1145.37 97.475 1143.5 105.992 1139.77 113.225C1136.03 120.458 1130.9 126.058 1124.37 130.025C1117.83 133.875 1110.31 135.8 1101.79 135.8ZM1102.49 123.375C1107.16 123.258 1110.66 121.625 1112.99 118.475C1115.44 115.325 1117.13 111.358 1118.07 106.575C1119 101.792 1119.47 96.95 1119.47 92.05C1119.47 87.7333 1119.12 83.3583 1118.42 78.925C1117.83 74.4917 1116.84 70.4667 1115.44 66.85C1114.04 63.2333 1112.12 60.3167 1109.67 58.1C1107.33 55.8833 1104.42 54.8333 1100.92 54.95C1096.37 55.0667 1092.75 56.7 1090.07 59.85C1087.5 63 1085.63 66.9667 1084.47 71.75C1083.42 76.4167 1082.89 81.3167 1082.89 86.45C1082.89 92.4 1083.53 98.2333 1084.82 103.95C1086.1 109.667 1088.14 114.392 1090.94 118.125C1093.86 121.742 1097.71 123.492 1102.49 123.375ZM1158.04 133V121.625C1161.3 121.625 1163.64 120.983 1165.04 119.7C1166.44 118.417 1167.31 116.608 1167.66 114.275C1168.13 111.825 1168.36 109.083 1168.36 106.05V76.65C1168.36 74.55 1168.42 72.2167 1168.54 69.65C1168.65 66.9667 1168.83 64.3417 1169.06 61.775C1167.2 61.8917 1164.98 62.0083 1162.41 62.125C1159.96 62.125 1158.1 62.1833 1156.81 62.3V49C1162.18 49 1166.73 48.7083 1170.46 48.125C1174.2 47.5417 1177.11 46.8417 1179.21 46.025C1181.43 45.2083 1182.95 44.45 1183.76 43.75H1192.34C1192.57 45.2667 1192.69 46.375 1192.69 47.075C1192.69 47.775 1192.69 48.475 1192.69 49.175C1192.8 49.7583 1193.04 50.8667 1193.39 52.5C1195.72 50.6333 1198.4 49 1201.44 47.6C1204.47 46.0833 1207.5 44.9167 1210.54 44.1C1213.57 43.1667 1216.25 42.7 1218.59 42.7C1229.32 42.7 1236.9 45.7917 1241.34 51.975C1245.89 58.0417 1248.16 67.8417 1248.16 81.375V104.825C1248.16 106.458 1248.1 108.792 1247.99 111.825C1247.87 114.742 1247.7 117.542 1247.46 120.225C1249.45 119.992 1251.55 119.875 1253.76 119.875C1255.98 119.758 1257.67 119.7 1258.84 119.7V133H1212.99V121.625C1216.25 121.625 1218.59 120.983 1219.99 119.7C1221.5 118.417 1222.44 116.608 1222.79 114.275C1223.25 111.825 1223.49 109.083 1223.49 106.05L1223.31 81.2C1223.31 73.6167 1222.2 68.0167 1219.99 64.4C1217.89 60.6667 1214.27 58.8 1209.14 58.8C1206.22 58.8 1203.3 59.4417 1200.39 60.725C1197.59 62.0083 1195.2 63.525 1193.21 65.275C1193.21 66.9083 1193.21 68.6 1193.21 70.35C1193.21 71.9833 1193.21 73.6167 1193.21 75.25V104.825C1193.21 106.458 1193.15 108.792 1193.04 111.825C1192.92 114.742 1192.75 117.542 1192.51 120.225C1194.38 119.992 1196.42 119.875 1198.64 119.875C1200.97 119.758 1202.72 119.7 1203.89 119.7V133H1158.04Z" fill="#DFDFDF"/>
</svg>
